<?xml version="1.0" encoding="UTF-8" standalone="no"?>
<!-- Created with Inkscape (http://www.inkscape.org/) -->

<svg
   xmlns:dc="http://purl.org/dc/elements/1.1/"
   xmlns:cc="http://creativecommons.org/ns#"
   xmlns:rdf="http://www.w3.org/1999/02/22-rdf-syntax-ns#"
   xmlns:svg="http://www.w3.org/2000/svg"
   xmlns="http://www.w3.org/2000/svg"
   xmlns:sodipodi="http://sodipodi.sourceforge.net/DTD/sodipodi-0.dtd"
   xmlns:inkscape="http://www.inkscape.org/namespaces/inkscape"
   id="svg2"
   version="1.1"
   inkscape:version="0.48.4 r9939"
   width="518.75"
   height="278.75"
   xml:space="preserve"
   sodipodi:docname="cisco-logo-rgb_from_eps.svg"
   inkscape:export-filename="/home/jospoortvliet/Source code/conference.o.o/static/images/sponsors/cisco-logo-rgb_from_eps.png"
   inkscape:export-xdpi="180.08675"
   inkscape:export-ydpi="180.08675"><metadata
     id="metadata8"><rdf:RDF><cc:Work
         rdf:about=""><dc:format>image/svg+xml</dc:format><dc:type
           rdf:resource="http://purl.org/dc/dcmitype/StillImage" /><dc:title></dc:title></cc:Work></rdf:RDF></metadata><defs
     id="defs6" /><sodipodi:namedview
     pagecolor="#ffffff"
     bordercolor="#666666"
     borderopacity="1"
     objecttolerance="10"
     gridtolerance="10"
     guidetolerance="10"
     inkscape:pageopacity="0"
     inkscape:pageshadow="2"
     inkscape:window-width="1920"
     inkscape:window-height="1025"
     id="namedview4"
     showgrid="false"
     inkscape:zoom="2.9609639"
     inkscape:cx="248.39357"
     inkscape:cy="143.19158"
     inkscape:window-x="0"
     inkscape:window-y="397"
     inkscape:window-maximized="1"
     inkscape:current-layer="g10" /><g
     id="g10"
     inkscape:groupmode="layer"
     inkscape:label="ink_ext_XXXXXX"
     transform="matrix(1.25,0,0,-1.25,0,278.75)"><g
       id="g12"
       transform="scale(0.1,0.1)"><path
         d="m 1221.24,1898.55 0,0 c 33.73,0 61.32,-27 61.32,-60 l 0,-636.31 c 0,-33.01 -27.59,-60 -61.32,-60 l 0,0 c -33.73,0 -61.33,26.99 -61.33,60 l 0,636.31 c 0,33 27.6,60 61.33,60"
         style="fill:#4a6275;fill-opacity:1;fill-rule:evenodd;stroke:none"
         id="path14" /><path
         d="m 893.398,1673.7 0,0 c 33.297,0 60.536,-27.19 60.536,-60.44 l 0,-291.08 c 0,-33.25 -27.239,-60.44 -60.536,-60.44 l 0,0 c -33.3,0 -60.539,27.19 -60.539,60.44 l 0,291.08 c 0,33.25 27.239,60.44 60.539,60.44"
         style="fill:#4a6275;fill-opacity:1;fill-rule:evenodd;stroke:none"
         id="path16" /><path
         d="m 560.051,1508.6 0.004,0 c 32.433,0 58.961,-27.4 58.961,-60.9 l 0,-125.06 c 0,-33.5 -26.528,-60.9 -58.961,-60.9 l -0.004,0 c -32.434,0 -58.965,27.4 -58.965,60.9 l 0,125.06 c 0,33.5 26.531,60.9 58.965,60.9"
         style="fill:#4a6275;fill-opacity:1;fill-rule:evenodd;stroke:none"
         id="path18" /><path
         d="m 1555.73,1673.7 0,0 c 33.3,0 60.54,-27.19 60.54,-60.44 l 0,-291.08 c 0,-33.25 -27.24,-60.44 -60.54,-60.44 l 0,0 c -33.3,0 -60.54,27.19 -60.54,60.44 l 0,291.08 c 0,33.25 27.24,60.44 60.54,60.44"
         style="fill:#4a6275;fill-opacity:1;fill-rule:evenodd;stroke:none"
         id="path20" /><path
         d="m 1884.71,1508.6 0.01,0 c 32.43,0 58.96,-27.4 58.96,-60.9 l 0,-125.06 c 0,-33.5 -26.53,-60.9 -58.96,-60.9 l -0.01,0 c -32.42,0 -58.96,27.4 -58.96,60.9 l 0,125.06 c 0,33.5 26.54,60.9 58.96,60.9"
         style="fill:#4a6275;fill-opacity:1;fill-rule:evenodd;stroke:none"
         id="path22" /><path
         d="m 2552.26,1898.55 0,0 c -33.74,0 -61.33,-27 -61.33,-60 l 0,-636.31 c 0,-33.01 27.59,-60 61.33,-60 l 0,0 c 33.73,0 61.32,26.99 61.32,60 l 0,636.31 c 0,33 -27.59,60 -61.32,60"
         style="fill:#4a6275;fill-opacity:1;fill-rule:evenodd;stroke:none"
         id="path24" /><path
         d="m 2880.1,1673.7 0,0 c -33.3,0 -60.54,-27.19 -60.54,-60.44 l 0,-291.08 c 0,-33.25 27.24,-60.44 60.54,-60.44 l 0,0 c 33.3,0 60.53,27.19 60.53,60.44 l 0,291.08 c 0,33.25 -27.23,60.44 -60.53,60.44"
         style="fill:#4a6275;fill-opacity:1;fill-rule:evenodd;stroke:none"
         id="path26" /><path
         d="m 3213.45,1508.6 -0.01,0 c -32.43,0 -58.96,-27.4 -58.96,-60.9 l 0,-125.06 c 0,-33.5 26.53,-60.9 58.96,-60.9 l 0.01,0 c 32.43,0 58.96,27.4 58.96,60.9 l 0,125.06 c 0,33.5 -26.53,60.9 -58.96,60.9"
         style="fill:#4a6275;fill-opacity:1;fill-rule:evenodd;stroke:none"
         id="path28" /><path
         d="m 2217.77,1673.7 0,0 c -33.3,0 -60.54,-27.19 -60.54,-60.44 l 0,-291.08 c 0,-33.25 27.24,-60.44 60.54,-60.44 l 0,0 c 33.3,0 60.53,27.19 60.53,60.44 l 0,291.08 c 0,33.25 -27.23,60.44 -60.53,60.44"
         style="fill:#4a6275;fill-opacity:1;fill-rule:evenodd;stroke:none"
         id="path30" /><path
         d="m 881.277,686.805 c 0,0.16 -0.007,0.316 -0.007,0.476 0,70.672 61.089,128.305 136,128.305 42.13,-2.203 65.12,-8.891 98.75,-27.031 l 0,134.047 c -30.59,11.484 -62.8,15.617 -98.75,17.82 -357.938,3.144 -357.938,-510.383 0,-507.238 35.95,2.203 68.16,6.339 98.75,17.82 l 0,134.051 c -33.63,-18.145 -56.62,-24.832 -98.75,-27.035 -74.911,0 -136,57.636 -136,128.304 0,0.164 0.007,0.321 0.007,0.481"
         style="fill:#c24445;fill-opacity:1;fill-rule:evenodd;stroke:none"
         id="path32" /><path
         d="m 2763.69,558.973 c -70.67,0 -128.31,57.632 -128.31,128.308 0,70.672 57.64,128.305 128.31,128.305 70.67,0 128.3,-57.633 128.3,-128.305 0,-70.676 -57.63,-128.308 -128.3,-128.308 z m 0,-124.836 c -139.44,0 -253.14,113.711 -253.14,253.144 0,139.434 113.7,253.141 253.14,253.141 139.43,0 253.14,-113.707 253.14,-253.141 0,-139.433 -113.71,-253.144 -253.14,-253.144"
         style="fill:#c24445;fill-opacity:1;fill-rule:evenodd;stroke:none"
         id="path34" /><path
         d="m 2150.46,686.805 c 0,0.16 -0.01,0.316 -0.01,0.476 0,70.672 61.09,128.305 136.01,128.305 42.12,-2.203 65.11,-8.891 98.74,-27.031 l 0,134.047 c -30.59,11.484 -62.8,15.617 -98.74,17.82 -357.95,3.144 -357.95,-510.383 0,-507.238 35.94,2.203 68.15,6.339 98.74,17.82 l 0,134.051 c -33.63,-18.145 -56.62,-24.832 -98.74,-27.035 -74.92,0 -136.01,57.636 -136.01,128.304 0,0.164 0.01,0.321 0.01,0.481"
         style="fill:#c24445;fill-opacity:1;fill-rule:evenodd;stroke:none"
         id="path36" /><path
         d="m 1868.73,921.359 c 0,-34.14 0,-68.285 0,-102.433 -35.23,4.051 -70.46,8.094 -105.71,12.133 -64.23,8.086 -79.27,-48.813 -45.14,-68.27 38.91,-17.164 77.82,-34.242 116.72,-48.453 81.31,-33.082 78.41,-192.094 4.4,-240.063 -59.32,-38.753 -134.73,-60.793 -267.59,-23.125 0.01,35.614 0.01,71.227 0,106.836 53.23,-11.054 106.83,-19.507 162.98,-9.933 35.04,2.551 65.97,54.277 5.51,83.695 -31.69,12.301 -101.91,24.93 -134.35,68.27 -50.53,53.968 -31.05,147.574 5.51,185.004 63.99,71.281 174.23,53.984 257.67,36.339"
         style="fill:#c24445;fill-opacity:1;fill-rule:evenodd;stroke:none"
         id="path38" /><path
         d="m 1281.39,446.578 125.473,0 0,479.5 -125.473,0 0,-479.5 z"
         style="fill:#c24445;fill-opacity:1;fill-rule:evenodd;stroke:none"
         id="path40" /><path
         d="m 3172.12,441.844 0,60.183 -22.47,0 0,10.664 56.69,0 0,-10.664 -22.58,0 0,-60.183 -11.64,0 z m 40.58,0 0,70.847 15.86,0 0.28,-0.89 16.15,-48.309 0,-0.012 c 0.73,-2.23 1.4,-4.23 1.93,-5.898 0.04,-0.117 0.09,-0.246 0.13,-0.367 0.08,0.234 0.12,0.512 0.21,0.758 l 0,-0.012 c 0.67,2.035 1.4,4.176 2.14,6.367 l 16.34,47.473 0.31,0.89 14.38,0 0,-70.847 -11.31,0 0,50.672 -17.28,-49.786 -0.3,-0.886 -10.02,0 -0.32,0.886 -17.18,50.594 0,-51.48 -11.32,0"
         style="fill:#c24445;fill-opacity:1;fill-rule:nonzero;stroke:none"
         id="path42" /></g></g></svg>